<?xml version="1.0" encoding="UTF-8"?> <!-- Generator: Adobe Illustrator 24.0.3, SVG Export Plug-In . SVG Version: 6.00 Build 0) --> <svg xmlns="http://www.w3.org/2000/svg" xmlns:xlink="http://www.w3.org/1999/xlink" id="Слой_1" x="0px" y="0px" width="1200px" height="900px" viewBox="0 0 1200 900" xml:space="preserve"> <linearGradient id="SVGID_1_" gradientUnits="userSpaceOnUse" x1="1110.6979" y1="990.4166" x2="452.4885" y2="136.2756"> <stop offset="3.222960e-03" style="stop-color:#464194;stop-opacity:0"></stop> <stop offset="0.1932" style="stop-color:#494294;stop-opacity:0.1912"></stop> <stop offset="0.345" style="stop-color:#524495;stop-opacity:0.3439"></stop> <stop offset="0.4835" style="stop-color:#614796;stop-opacity:0.4834"></stop> <stop offset="0.6143" style="stop-color:#754B99;stop-opacity:0.615"></stop> <stop offset="0.7396" style="stop-color:#8F529B;stop-opacity:0.7411"></stop> <stop offset="0.8607" style="stop-color:#AB5A9F;stop-opacity:0.863"></stop> <stop offset="0.9764" style="stop-color:#C965A4;stop-opacity:0.9794"></stop> <stop offset="0.9968" style="stop-color:#CF67A5"></stop> </linearGradient> <path fill="url(#SVGID_1_)" d="M236.89,701.86c-65.67-75.67-96.59-184.34-64.3-278.82c32.29-94.48,134.76-165.13,234.03-147.78 c52.09,9.11,104.44,39.85,154.51,22.95c45.63-15.4,69.32-64.37,84.33-109.69c15.01-45.32,28.55-95.23,66.85-124.2 c37.18-28.12,89.75-28.78,134.07-13.9c44.32,14.88,82.52,43.13,120.68,69.94c38.15,26.81,78.25,53.14,123.94,63.19 c18.26,4.02,37.55,5.49,53.96,14.37c24.43,13.22,38.09,41.47,38.62,69.02s-10.44,54.27-25.51,77.43 c-93.58,143.76-320.77,151.67-415.8,294.49c-21.03,31.61-34.02,68.01-56.06,98.94C570.17,900.66,345.88,827.46,236.89,701.86z"></path> <linearGradient id="SVGID_2_" gradientUnits="userSpaceOnUse" x1="597.874" y1="18.3202" x2="95.4452" y2="966.4505"> <stop offset="3.222150e-03" style="stop-color:#C1AFD6"></stop> <stop offset="0.0479" style="stop-color:#A696C8;stop-opacity:0.955"></stop> <stop offset="0.1053" style="stop-color:#8D7DB9;stop-opacity:0.8973"></stop> <stop offset="0.1703" style="stop-color:#7668AD;stop-opacity:0.832"></stop> <stop offset="0.2437" style="stop-color:#6459A3;stop-opacity:0.758"></stop> <stop offset="0.3295" style="stop-color:#564E9C;stop-opacity:0.6717"></stop> <stop offset="0.4355" style="stop-color:#4D4797;stop-opacity:0.5651"></stop> <stop offset="0.5843" style="stop-color:#484294;stop-opacity:0.4155"></stop> <stop offset="0.9972" style="stop-color:#464194;stop-opacity:0"></stop> </linearGradient> <path fill="url(#SVGID_2_)" d="M580.44,722.05c45.53-25.22,79.7-69.74,92.02-119.9c12.32-50.16,2.6-105.23-26.17-148.3 c-27.26-40.81-72.16-75.21-74.45-124.07c-1.39-29.64,13.92-57.46,18.09-86.84c7.48-52.75-26.04-108.44-76.48-127.07 C463,97.23,400.8,117.57,371.51,162.27c-16.61,25.34-25.62,59.11-53.46,71.5c-18.91,8.42-41.15,3.88-60.36-3.83 c-19.21-7.71-37.37-18.5-57.64-22.81c-47.22-10.04-96.36,18.56-122.65,58.65C51.11,305.86,43.59,355.1,41.1,402.82 c-3.38,65.01,1.44,130.43,14.31,194.27c11.75,58.23,34.55,120.66,87.17,149.2c43.68,23.7,96.94,18.05,146.34,11.74 c97.57-12.45,195.15-24.91,292.72-37.36c7.28-7.21,14.57-14.43,21.85-21.64"></path> </svg> 